# xmcd
#
# Track frame offsets:
#	150
#	16190
#	29978
#	45774
#	59823
#	74943
#	93272
#	115143
#	134097
#
# Disc length: 2030 seconds
#
# Revision: 0
# Processed by: cddbd v1.4PL0 Copyright (c) Steve Scherf et al.
# Submitted via: EasyCDDAExtractor 5.0.4.1
#
DISCID=8707ec09
DTITLE=Freddie Gerardo - El Maiz
DYEAR=1900
DGENRE=blues
TTITLE0=El Maiz
TTITLE1=Abraza la Flaca
TTITLE2=La Peluca
TTITLE3=Esta Noche Pago Yo
TTITLE4=La Puerto del Cielo
TTITLE5=Hay Vecino
TTITLE6=Lo Tuyo es Mio
TTITLE7=Una Mujer para Dos
TTITLE8=Mandame a Buscar
EXTD=
EXTT0=
EXTT1=
EXTT2=
EXTT3=
EXTT4=
EXTT5=
EXTT6=
EXTT7=
EXTT8=
PLAYORDER=
